<?xml version="1.0" standalone="no"?>
<!DOCTYPE svg PUBLIC "-//W3C//DTD SVG 20010904//EN"
 "http://www.w3.org/TR/2001/REC-SVG-20010904/DTD/svg10.dtd">
<svg version="1.0" xmlns="http://www.w3.org/2000/svg"
 width="512.000000pt" height="512.000000pt" viewBox="0 0 512.000000 512.000000"
 preserveAspectRatio="xMidYMid meet">
<metadata>
Created by potrace 1.11, written by Peter Selinger 2001-2013
</metadata>
<g transform="translate(0.000000,512.000000) scale(0.100000,-0.100000)"
fill="#000000" stroke="none">
<path d="M0 2560 l0 -2560 2560 0 2560 0 0 2560 0 2560 -2560 0 -2560 0 0
-2560z m4880 0 l0 -2320 -2320 0 -2320 0 0 2320 0 2320 2320 0 2320 0 0 -2320z"/>
<path d="M1068 4075 c-14 -14 -9 -122 5 -133 7 -6 54 -16 103 -22 117 -13 204
-36 229 -61 20 -19 20 -33 20 -1427 0 -774 -3 -1419 -7 -1433 -12 -41 -64 -58
-303 -96 l-50 -8 -3 -67 -3 -67 348 5 c191 3 461 1 598 -3 175 -7 252 -6 257
1 12 18 9 101 -5 118 -8 11 -55 23 -141 37 -153 26 -192 40 -209 78 -9 22 -12
333 -12 1424 0 1517 -3 1441 54 1457 14 4 118 7 231 7 188 0 211 -2 275 -23
260 -87 411 -245 487 -509 20 -69 23 -101 23 -273 0 -215 -6 -248 -70 -387
-78 -169 -202 -281 -387 -348 -97 -36 -248 -45 -362 -21 -43 9 -80 16 -83 16
-12 0 6 -92 22 -109 9 -11 40 -30 68 -42 44 -20 73 -24 182 -27 528 -15 948
266 1075 718 27 97 38 334 21 435 -47 266 -251 515 -525 640 -42 19 -127 50
-189 68 l-112 34 -510 7 c-280 3 -625 9 -765 12 -140 4 -258 3 -262 -1z"/>
<path d="M3654 1249 c-55 -16 -130 -93 -154 -157 -70 -186 62 -372 265 -372
88 0 137 22 192 84 98 112 98 273 0 375 -60 62 -106 81 -197 80 -41 0 -89 -5
-106 -10z"/>
</g>
</svg>
