<?xml version="1.0" standalone="no"?>
<!DOCTYPE svg PUBLIC "-//W3C//DTD SVG 20010904//EN"
 "http://www.w3.org/TR/2001/REC-SVG-20010904/DTD/svg10.dtd">
<svg version="1.0" xmlns="http://www.w3.org/2000/svg"
 width="512.000000pt" height="512.000000pt" viewBox="0 0 512.000000 512.000000"
 preserveAspectRatio="xMidYMid meet">
<metadata>
Created by potrace 1.11, written by Peter Selinger 2001-2013
</metadata>
<g transform="translate(0.000000,512.000000) scale(0.100000,-0.100000)"
fill="#000000" stroke="none">
<path d="M0 2560 l0 -2560 2560 0 2560 0 0 2560 0 2560 -2560 0 -2560 0 0
-2560z m4880 0 l0 -2320 -2320 0 -2320 0 0 2320 0 2320 2320 0 2320 0 0 -2320z"/>
<path d="M1067 4066 c-10 -27 -8 -95 3 -117 8 -15 21 -19 58 -19 64 0 219 -28
253 -46 16 -8 34 -24 41 -37 10 -18 13 -301 13 -1412 0 -765 -4 -1407 -8
-1427 -6 -28 -16 -42 -40 -54 -34 -18 -218 -53 -279 -54 -43 0 -51 -16 -46
-91 l3 -44 220 5 c315 7 510 6 756 -4 l217 -8 6 38 c3 22 3 53 -2 69 -8 29
-10 30 -102 42 -140 17 -210 34 -236 57 -21 18 -26 36 -35 121 -15 151 -7
2698 9 2746 19 58 46 64 267 64 215 0 273 -11 410 -74 186 -87 313 -246 373
-470 23 -86 25 -115 25 -271 0 -146 -3 -187 -21 -251 -59 -216 -179 -368 -359
-456 -95 -46 -159 -62 -273 -69 -74 -4 -112 -1 -172 14 -43 11 -80 17 -83 14
-10 -10 -5 -53 9 -80 19 -36 77 -67 154 -83 78 -15 271 -7 391 16 398 77 691
337 788 701 23 86 26 120 27 259 1 139 -2 170 -22 239 -44 153 -119 273 -244
393 -125 119 -268 194 -478 251 l-95 26 -680 7 c-374 4 -716 10 -761 14 -71 7
-82 6 -87 -9z"/>
<path d="M3643 1240 c-127 -57 -191 -203 -147 -333 37 -109 147 -187 265 -187
108 0 186 50 242 154 31 58 31 184 0 242 -26 49 -90 108 -139 129 -52 22 -168
19 -221 -5z"/>
</g>
</svg>
